<svg id="visual" viewBox="0 0 960 150" width="960" height="150" xmlns="http://www.w3.org/2000/svg" xmlns:xlink="http://www.w3.org/1999/xlink" version="1.1"><rect x="0" y="0" width="960" height="150" fill="#eee"></rect><path d="M0 112L16 111.5C32 111 64 110 96 110.5C128 111 160 113 192 116.3C224 119.7 256 124.3 288 123.2C320 122 352 115 384 114.2C416 113.3 448 118.7 480 121.8C512 125 544 126 576 122C608 118 640 109 672 103.3C704 97.7 736 95.3 768 99.7C800 104 832 115 864 114.7C896 114.3 928 102.7 944 96.8L960 91L960 0L944 0C928 0 896 0 864 0C832 0 800 0 768 0C736 0 704 0 672 0C640 0 608 0 576 0C544 0 512 0 480 0C448 0 416 0 384 0C352 0 320 0 288 0C256 0 224 0 192 0C160 0 128 0 96 0C64 0 32 0 16 0L0 0Z" fill="#eeeeee"></path><path d="M0 74L16 74.7C32 75.3 64 76.7 96 81.2C128 85.7 160 93.3 192 92.5C224 91.7 256 82.3 288 80.7C320 79 352 85 384 86.2C416 87.3 448 83.7 480 82.2C512 80.7 544 81.3 576 84.2C608 87 640 92 672 92C704 92 736 87 768 84.3C800 81.7 832 81.3 864 82C896 82.7 928 84.3 944 85.2L960 86L960 0L944 0C928 0 896 0 864 0C832 0 800 0 768 0C736 0 704 0 672 0C640 0 608 0 576 0C544 0 512 0 480 0C448 0 416 0 384 0C352 0 320 0 288 0C256 0 224 0 192 0C160 0 128 0 96 0C64 0 32 0 16 0L0 0Z" fill="#fac7bd"></path><path d="M0 56L16 57.2C32 58.3 64 60.7 96 63.3C128 66 160 69 192 67.8C224 66.7 256 61.3 288 59.2C320 57 352 58 384 57.2C416 56.3 448 53.7 480 56.2C512 58.7 544 66.3 576 67.8C608 69.3 640 64.7 672 65C704 65.3 736 70.7 768 71.5C800 72.3 832 68.7 864 66C896 63.3 928 61.7 944 60.8L960 60L960 0L944 0C928 0 896 0 864 0C832 0 800 0 768 0C736 0 704 0 672 0C640 0 608 0 576 0C544 0 512 0 480 0C448 0 416 0 384 0C352 0 320 0 288 0C256 0 224 0 192 0C160 0 128 0 96 0C64 0 32 0 16 0L0 0Z" fill="#fea08e"></path><path d="M0 52L16 50.5C32 49 64 46 96 47.2C128 48.3 160 53.7 192 53.3C224 53 256 47 288 43.3C320 39.7 352 38.3 384 39.7C416 41 448 45 480 47.5C512 50 544 51 576 48.2C608 45.3 640 38.7 672 39.7C704 40.7 736 49.3 768 51C800 52.7 832 47.3 864 45.8C896 44.3 928 46.7 944 47.8L960 49L960 0L944 0C928 0 896 0 864 0C832 0 800 0 768 0C736 0 704 0 672 0C640 0 608 0 576 0C544 0 512 0 480 0C448 0 416 0 384 0C352 0 320 0 288 0C256 0 224 0 192 0C160 0 128 0 96 0C64 0 32 0 16 0L0 0Z" fill="#fb7661"></path><path d="M0 19L16 18.5C32 18 64 17 96 16.3C128 15.7 160 15.3 192 17.7C224 20 256 25 288 25.7C320 26.3 352 22.7 384 21.3C416 20 448 21 480 22C512 23 544 24 576 25.8C608 27.7 640 30.3 672 31.8C704 33.3 736 33.7 768 34.2C800 34.7 832 35.3 864 32.3C896 29.3 928 22.7 944 19.3L960 16L960 0L944 0C928 0 896 0 864 0C832 0 800 0 768 0C736 0 704 0 672 0C640 0 608 0 576 0C544 0 512 0 480 0C448 0 416 0 384 0C352 0 320 0 288 0C256 0 224 0 192 0C160 0 128 0 96 0C64 0 32 0 16 0L0 0Z" fill="#f44336"></path></svg>