<?xml version="1.0" encoding="UTF-8" standalone="no"?>
<svg
   id="visual"
   viewBox="0 0 960 150"
   width="960"
   height="150"
   version="1.1"
   sodipodi:docname="top.svg"
   xmlns:inkscape="http://www.inkscape.org/namespaces/inkscape"
   xmlns:sodipodi="http://sodipodi.sourceforge.net/DTD/sodipodi-0.dtd"
   xmlns="http://www.w3.org/2000/svg"
   xmlns:svg="http://www.w3.org/2000/svg">
  <defs
     id="defs34" />
  <sodipodi:namedview
     id="namedview32"
     pagecolor="#505050"
     bordercolor="#eeeeee"
     borderopacity="1"
     inkscape:showpageshadow="0"
     inkscape:pageopacity="0"
     inkscape:pagecheckerboard="0"
     inkscape:deskcolor="#505050"
     showgrid="false"
     inkscape:zoom="0.49571132"
     inkscape:cx="1827.6767"
     inkscape:cy="543.6632"
     inkscape:window-width="2560"
     inkscape:window-height="1351"
     inkscape:window-x="2391"
     inkscape:window-y="-9"
     inkscape:window-maximized="1"
     inkscape:current-layer="visual" />
  <rect
     x="0"
     y="0"
     width="960"
     height="150"
     fill="#eeeeee"
     id="rect19" />
  <path
     d="m 0,112 16,-0.5 c 16,-0.5 48,-1.5 80,-1 32,0.5 64,2.5 96,5.8 32,3.4 64,8 96,6.9 32,-1.2 64,-8.2 96,-9 32,-0.9 64,4.5 96,7.6 32,3.2 64,4.2 96,0.2 32,-4 64,-13 96,-18.7 32,-5.6 64,-8 96,-3.6 32,4.3 64,15.3 96,15 32,-0.4 64,-12 80,-17.9 L 960,91 V 0 H 944 C 928,0 896,0 864,0 832,0 800,0 768,0 736,0 704,0 672,0 640,0 608,0 576,0 544,0 512,0 480,0 448,0 416,0 384,0 352,0 320,0 288,0 256,0 224,0 192,0 160,0 128,0 96,0 64,0 32,0 16,0 H 0 Z"
     fill="#eeeeee"
     id="path21" />
  <path
     d="m 0,74 16,0.7 c 16,0.6 48,2 80,6.5 32,4.5 64,12.1 96,11.3 32,-0.8 64,-10.2 96,-11.8 32,-1.7 64,4.3 96,5.5 32,1.1 64,-2.5 96,-4 32,-1.5 64,-0.9 96,2 32,2.8 64,7.8 96,7.8 32,0 64,-5 96,-7.7 32,-2.6 64,-3 96,-2.3 32,0.7 64,2.3 80,3.2 L 960,86 V 0 H 944 C 928,0 896,0 864,0 832,0 800,0 768,0 736,0 704,0 672,0 640,0 608,0 576,0 544,0 512,0 480,0 448,0 416,0 384,0 352,0 320,0 288,0 256,0 224,0 192,0 160,0 128,0 96,0 64,0 32,0 16,0 H 0 Z"
     fill="#fac7bd"
     id="path23" />
  <path
     d="m 0,56 16,1.2 c 16,1.1 48,3.5 80,6.1 32,2.7 64,5.7 96,4.5 32,-1.1 64,-6.5 96,-8.6 32,-2.2 64,-1.2 96,-2 32,-0.9 64,-3.5 96,-1 32,2.5 64,10.1 96,11.6 32,1.5 64,-3.1 96,-2.8 32,0.3 64,5.7 96,6.5 32,0.8 64,-2.8 96,-5.5 32,-2.7 64,-4.3 80,-5.2 L 960,60 V 0 H 944 C 928,0 896,0 864,0 832,0 800,0 768,0 736,0 704,0 672,0 640,0 608,0 576,0 544,0 512,0 480,0 448,0 416,0 384,0 352,0 320,0 288,0 256,0 224,0 192,0 160,0 128,0 96,0 64,0 32,0 16,0 H 0 Z"
     fill="#fea08e"
     id="path25" />
  <path
     d="M 0,52 16,50.5 C 32,49 64,46 96,47.2 c 32,1.1 64,6.5 96,6.1 32,-0.3 64,-6.3 96,-10 32,-3.6 64,-5 96,-3.6 32,1.3 64,5.3 96,7.8 32,2.5 64,3.5 96,0.7 32,-2.9 64,-9.5 96,-8.5 32,1 64,9.6 96,11.3 32,1.7 64,-3.7 96,-5.2 32,-1.5 64,0.9 80,2 L 960,49 V 0 H 944 C 928,0 896,0 864,0 832,0 800,0 768,0 736,0 704,0 672,0 640,0 608,0 576,0 544,0 512,0 480,0 448,0 416,0 384,0 352,0 320,0 288,0 256,0 224,0 192,0 160,0 128,0 96,0 64,0 32,0 16,0 H 0 Z"
     fill="#fb7661"
     id="path27" />
  <path
     d="M 0,19 16,18.5 C 32,18 64,17 96,16.3 c 32,-0.6 64,-1 96,1.4 32,2.3 64,7.3 96,8 32,0.6 64,-3 96,-4.4 32,-1.3 64,-0.3 96,0.7 32,1 64,2 96,3.8 32,1.9 64,4.5 96,6 32,1.5 64,1.9 96,2.4 32,0.5 64,1.1 96,-1.9 32,-3 64,-9.6 80,-13 L 960,16 V 0 H 944 C 928,0 896,0 864,0 832,0 800,0 768,0 736,0 704,0 672,0 640,0 608,0 576,0 544,0 512,0 480,0 448,0 416,0 384,0 352,0 320,0 288,0 256,0 224,0 192,0 160,0 128,0 96,0 64,0 32,0 16,0 H 0 Z"
     fill="#f44336"
     id="path29" />
</svg>
